<svg width="30" height="30" viewBox="0 0 30 30" fill="none" xmlns="http://www.w3.org/2000/svg">
<path d="M21.2975 21.3055H17.5998V15.5031C17.5998 14.1195 17.5709 12.3414 15.6661 12.3414C13.7379 12.3414 13.4442 13.8422 13.4442 15.4008V21.3047H9.74171V9.37422H13.2981V11.0016H13.3457C13.8426 10.0617 15.0513 9.07344 16.8544 9.07344C20.6053 9.07344 21.3014 11.543 21.3014 14.7539V21.3047L21.2975 21.3055ZM5.55877 7.74375C4.36576 7.74375 3.40948 6.77891 3.40948 5.59063C3.40948 4.40625 4.36967 3.44297 5.55877 3.44297C6.74787 3.44297 7.71118 4.40625 7.71118 5.59063C7.71118 6.77891 6.74787 7.74375 5.55877 7.74375ZM7.41351 21.3055H3.70324V9.375H7.41351V21.3055ZM23.1538 0H1.84381C0.825807 0 0 0.805469 0 1.80234V23.1984C0 24.1953 0.825807 25.0008 1.84381 25.0008H23.1499C24.1664 25.0008 25.0008 24.1953 25.0008 23.1984V1.80234C25.0008 0.805469 24.1664 0 23.1499 0L23.1538 0Z" fill="#14213D"/>
</svg>
