<svg width="40" height="40" viewBox="0 0 40 40" fill="none" xmlns="http://www.w3.org/2000/svg">
<path d="M20 35.625C28.6294 35.625 35.625 28.6294 35.625 20C35.625 11.3706 28.6294 4.375 20 4.375C11.3706 4.375 4.375 11.3706 4.375 20C4.375 28.6294 11.3706 35.625 20 35.625Z" fill="#F0DB4F"/>
<path d="M15.125 13.9375H17.8437V21.5938C17.8437 25.0312 16.1875 26.25 13.5625 26.25C12.9063 26.25 12.0938 26.1562 11.5625 25.9688L11.875 23.75C12.25 23.875 12.75 23.9688 13.2812 23.9688C14.4375 23.9688 15.1562 23.4375 15.1562 21.5938L15.125 13.9375Z" fill="#323330"/>
<path d="M20.25 23.25C20.9688 23.625 22.125 24 23.2813 24C24.5313 24 25.1875 23.4688 25.1875 22.6562C25.1875 21.9062 24.625 21.4687 23.1562 20.9687C21.1562 20.25 19.8125 19.125 19.8125 17.3438C19.8125 15.3125 21.5625 13.75 24.4062 13.75C25.7812 13.75 26.7813 14.0312 27.5 14.375L26.875 16.5625C26.4063 16.3438 25.5313 16 24.375 16C23.1875 16 22.625 16.5625 22.625 17.1563C22.625 17.9375 23.2812 18.2813 24.875 18.875C27 19.6563 28 20.7812 28 22.5C28 24.5312 26.4688 26.25 23.125 26.25C21.75 26.25 20.375 25.875 19.6875 25.5L20.25 23.25Z" fill="#323330"/>
</svg>
