<svg width="40" height="40" viewBox="0 0 40 40" fill="none" xmlns="http://www.w3.org/2000/svg">
<circle cx="20" cy="20" r="20" fill="#14213D"/>
<path d="M19.6309 16.1263L25.2015 21.697L29.2618 17.6367L23.6912 12.066L23.6933 12.0639L20.2111 8.58174L19.99 8.36202L19.6323 8L19.6289 8.00342L16.1466 11.4858L15.5673 12.0694L10 17.6367L14.0605 21.697L19.6309 16.1263ZM17.3052 12.6441L17.8843 12.0605L19.6275 10.3173L19.6296 10.3194L19.633 10.316L21.3809 12.0639L21.3788 12.066L26.9494 17.6367L25.2015 19.3846L19.6309 13.814L14.0605 19.3846L12.3126 17.6367L17.3052 12.6441Z" fill="#FCA311"/>
<path d="M23.6899 23.3636L20.2111 19.8849L19.6343 19.3123L19.6288 19.3068L16.1466 22.7889L15.5706 23.3692L10 28.9398L14.0605 33.0001L19.6309 27.4294L25.2015 33.0001L29.2618 28.9398L23.6878 23.3657L23.6899 23.3636ZM26.9494 28.9398L25.2015 30.6877L19.6309 25.117L14.0605 30.6877L12.3126 28.9398L17.3052 23.9473L17.8803 23.3678L19.6311 21.617L21.3846 23.3704L21.3825 23.3725L26.9494 28.9398Z" fill="#FCA311"/>
</svg>
