<svg width="40" height="40" viewBox="0 0 40 40" fill="none" xmlns="http://www.w3.org/2000/svg">
<path d="M19.9667 23.32C21.815 23.32 23.3133 21.8217 23.3133 19.9733C23.3133 18.125 21.815 16.6267 19.9667 16.6267C18.1183 16.6267 16.62 18.125 16.62 19.9733C16.62 21.8217 18.1183 23.32 19.9667 23.32Z" fill="#00D8FF"/>
<path d="M19.9666 27.64C15.2666 27.64 11.1599 27.0867 8.08661 26.0333C6.09328 25.3533 4.39994 24.4467 3.19328 23.4133C1.91328 22.32 1.23328 21.1267 1.23328 19.9733C1.23328 17.76 3.65994 15.5933 7.73328 14.18C11.0666 13.02 15.4133 12.3733 19.9599 12.3733C24.4266 12.3733 28.7133 13 32.0266 14.1467C33.9666 14.8133 35.5999 15.68 36.7599 16.64C38.0199 17.6933 38.6866 18.8467 38.6866 19.9733C38.6866 22.2733 35.9733 24.6 31.5999 26.0467C28.5066 27.0733 24.3733 27.64 19.9666 27.64ZM19.9666 13.9733C15.6533 13.9733 11.3866 14.6 8.26661 15.6867C4.51994 16.9933 2.83994 18.78 2.83994 19.9733C2.83994 21.2133 4.64661 23.1667 8.60661 24.52C11.5133 25.5133 15.4466 26.04 19.9666 26.04C24.2066 26.04 28.1599 25.5067 31.0999 24.5267C35.2133 23.16 37.0933 21.2067 37.0933 19.9733C37.0933 19.34 36.6133 18.5933 35.7399 17.8667C34.7333 17.0267 33.2666 16.26 31.5133 15.6533C28.3599 14.5733 24.2599 13.9733 19.9666 13.9733Z" fill="#00D8FF"/>
<path d="M12.3733 36.6533C11.6933 36.6533 11.0933 36.5067 10.5867 36.2133C8.67334 35.1067 8.00668 31.92 8.81334 27.6867C9.47334 24.2133 11.0867 20.1333 13.36 16.1933C15.5933 12.3267 18.2733 8.92667 20.92 6.62667C22.4667 5.28001 24.0333 4.29334 25.4467 3.77334C26.9867 3.20667 28.32 3.20667 29.2933 3.76667C31.2867 4.91334 31.9467 8.43334 31.0133 12.94C30.3533 16.14 28.78 20 26.58 23.82C24.2333 27.8867 21.7 31.1667 19.2533 33.3067C17.6667 34.6933 16.0333 35.7067 14.54 36.2333C13.76 36.5133 13.0267 36.6533 12.3733 36.6533ZM14.0467 16.5933L14.74 16.9933C12.5867 20.7267 10.9933 24.7333 10.38 27.9867C9.64001 31.8867 10.3533 34.2333 11.38 34.8267C11.6333 34.9733 11.9667 35.0533 12.3733 35.0533C13.7 35.0533 15.7867 34.2133 18.2 32.1067C20.5133 30.0867 22.9333 26.94 25.1933 23.0267C27.3133 19.3533 28.82 15.66 29.4467 12.6267C30.32 8.38001 29.5667 5.78001 28.4933 5.16001C27.9467 4.84667 27.06 4.88667 25.9933 5.28001C24.76 5.73334 23.3667 6.62001 21.9667 7.84001C19.4533 10.0267 16.8867 13.28 14.74 17L14.0467 16.5933Z" fill="#00D8FF"/>
<path d="M27.56 36.6733C25.7467 36.6733 23.4467 35.58 21.0467 33.5133C18.3667 31.2067 15.64 27.7733 13.36 23.8333C11.12 19.9667 9.52 15.9467 8.84667 12.5C8.45333 10.4867 8.38 8.63999 8.63333 7.15333C8.91333 5.53332 9.57333 4.37999 10.5533 3.81332C12.54 2.65999 15.92 3.84666 19.36 6.90666C21.8 9.07332 24.36 12.3667 26.5667 16.18C28.92 20.2467 30.5 24.08 31.1267 27.2667C31.5333 29.3333 31.6 31.2533 31.3133 32.8133C31.0067 34.4733 30.3133 35.6533 29.3133 36.2333C28.8133 36.5267 28.22 36.6733 27.56 36.6733ZM14.7467 23.0333C16.9067 26.7667 19.5867 30.1467 22.0933 32.3C25.1 34.8867 27.4867 35.4467 28.52 34.8467C29.5933 34.2267 30.38 31.6867 29.5667 27.58C28.9667 24.5667 27.4533 20.9 25.1867 16.9867C23.06 13.3133 20.6133 10.16 18.3 8.10666C15.06 5.22666 12.4333 4.57999 11.36 5.19999C10.8133 5.51332 10.4067 6.30666 10.2133 7.42666C9.99333 8.71999 10.06 10.3733 10.42 12.1933C11.06 15.4667 12.5933 19.3133 14.7467 23.0333Z" fill="#00D8FF"/>
</svg>
